SplineFontDB: 3.2
FontName: DSESeriesA
FullName: DSE Series A
FamilyName: DSE Series A
Weight: Regular
Copyright: Copyright (c) 2022, Darren Embry
UComments: "2022-5-7: Created with FontForge (http://fontforge.org)"
Version: 001.000
ItalicAngle: 0
UnderlinePosition: -144
UnderlineWidth: 72
Ascent: 960
Descent: 192
InvalidEm: 0
LayerCount: 2
Layer: 0 0 "Back" 1
Layer: 1 0 "Fore" 0
XUID: [1021 323 -1642646731 11131862]
OS2Version: 0
OS2_WeightWidthSlopeOnly: 0
OS2_UseTypoMetrics: 1
CreationTime: 1651977848
ModificationTime: 1713739342
OS2TypoAscent: 0
OS2TypoAOffset: 1
OS2TypoDescent: 0
OS2TypoDOffset: 1
OS2TypoLinegap: 0
OS2WinAscent: 0
OS2WinAOffset: 1
OS2WinDescent: 0
OS2WinDOffset: 1
HheadAscent: 0
HheadAOffset: 1
HheadDescent: 0
HheadDOffset: 1
OS2Vendor: 'PfEd'
Lookup: 258 0 0 "kern" { "kern-12"  "kern-11"  "kern-10"  "kern-9"  "kern-8"  "kern-7"  "kern-6"  "kern-5"  "kern-4"  "kern-3"  "kern-2"  "kern-1"  } ['kern' ('latn' <'dflt' > ) ]
MarkAttachClasses: 1
DEI: 91125
KernClass2: 8+ 8 "kern-12"
 1 A
 1 L
 1 T
 1 V
 1 W
 1 Y
 1 4
 1 7
 1 J
 1 T
 1 V
 1 W
 1 Y
 1 4
 1 7
 -79 {} -79 {} -79 {} -79 {} -79 {} -79 {} -79 {} -79 {} -79 {} -79 {} -79 {} -79 {} -79 {} -79 {} -79 {} -79 {} -79 {} -79 {} -79 {} -79 {} -79 {} -79 {} -79 {} -79 {} -79 {} -79 {} -79 {} -79 {} -79 {} -79 {} -79 {} -79 {} -79 {} -79 {} -79 {} -79 {} -79 {} -79 {} -79 {} -79 {} -79 {} -79 {} -79 {} -79 {} -79 {} -79 {} -79 {} -79 {} -79 {} -79 {} -79 {} -79 {} -79 {} -79 {} -79 {} -79 {} -79 {} -79 {} -79 {} -79 {} -79 {} -79 {} -79 {} -79 {}
KernClass2: 8+ 13 "kern-11"
 1 A
 1 L
 1 T
 1 V
 1 W
 1 Y
 1 4
 1 7
 1 G
 1 O
 1 Q
 1 S
 1 X
 1 Z
 1 2
 1 3
 1 6
 1 8
 1 9
 1 0

StartChar: A
Encoding: 65 65 1
Width: 444
Flags: HW
HStem: 0 21G<54 130.492 313.508 390> 192 72<172.43 271.57> 748 20G<182.562 261.438> 748 20G<182.562 261.438>
VStem: 54 336
LayerCount: 2
Fore
SplineSet
186 768 m 1xe8
 258 768 l 1
 390 0 l 1
 316.9453125 0 l 1
 283.9453125 192 l 1
 160.0546875 192 l 1
 127.0546875 0 l 1
 54 0 l 1
 186 768 l 1xe8
172.4296875 264 m 5
 271.5703125 264 l 1
 222 552.40625 l 1
 172.4296875 264 l 5
EndSplineSet
EndChar

StartChar: B
Encoding: 66 66 2
Width: 396
Flags: HW
HStem: -0.000976562 72.001<126 244.323> 360 72<126 239.002> 696 72<126 238.566>
VStem: 54 72<72 360 432 696> 269.987 71.9971<97.9539 334.618 464.781 662.105>
LayerCount: 2
Fore
SplineSet
324.610351562 469.711914062 m 0
 317.80859375 441.96484375 302.825195312 417.3203125 282.543945312 398.48828125 c 1
 306.400390625 378.405273438 323.897460938 350.545898438 330.849609375 318.861328125 c 0
 338.142578125 285.623046875 341.984375 251.100585938 341.984375 215.6875 c 0
 341.984375 180.2734375 338.140625 146.375 330.848632812 113.137695312 c 0
 316.671875 48.517578125 259.045898438 -0.0009765625 190.1953125 -0.0009765625 c 1
 54 0 l 1
 54 768 l 1
 184.748046875 768 l 1
 252.385742188 768 309.189453125 721.198242188 324.611328125 658.287109375 c 0
 332.0390625 628.008789062 335.970703125 596.366210938 335.970703125 563.8125 c 0
 335.970703125 531.2578125 332.034179688 499.991210938 324.610351562 469.711914062 c 0
126 432 m 1
 184.748046875 432 l 1
 218.56640625 432 246.965820312 455.40234375 254.676757812 486.857421875 c 0
 260.75 511.631835938 263.975585938 537.2109375 263.975585938 563.846679688 c 0
 263.975585938 590.481445312 260.759765625 616.370117188 254.681640625 641.14453125 c 0
 246.970703125 672.599609375 218.545898438 696 184.748046875 696 c 1
 126 696 l 1
 126 432 l 1
126 72 m 1
 190.48828125 72 l 0
 224.912109375 72 253.431640625 96.2578125 260.521484375 128.56640625 c 0
 266.720703125 156.818359375 269.987304688 185.631835938 269.987304688 215.734375 c 0
 269.987304688 245.8359375 266.719726562 275.18359375 260.521484375 303.434570312 c 0
 253.432617188 335.744140625 224.619140625 360 190.1953125 360 c 1
 184.748046875 360 l 1
 126 360 l 5
 126 72 l 1
EndSplineSet
EndChar

StartChar: V
Encoding: 86 86 3
Width: 444
Flags: HW
LayerCount: 2
Fore
SplineSet
189 0 m 5
 255 0 l 1
 390 768 l 1
 316.896484375 768 l 1
 222 228.142578125 l 1
 127.102539062 768 l 1
 54 768 l 1
 189 0 l 5
EndSplineSet
EndChar

StartChar: S
Encoding: 83 83 4
Width: 396
Flags: HW
HStem: -12 72<144.394 251.607> 708 72<157.021 256.979>
VStem: 54.001 72<79.2208 180> 72.001 72<524.109 694.534> 270.001 72<78.3935 265.541 612 694.481>
LayerCount: 2
Fore
SplineSet
126.000976562 132 m 5xe8
 126.000976562 92.26171875 158.262695312 60 198.000976562 60 c 4
 237.73828125 60 270.000976562 92.26171875 270.000976562 132 c 4
 270.000976562 226.85546875 234.483398438 317.985351562 171.033203125 388.495117188 c 4
 107.560546875 459.029296875 72.001953125 550.234375 72.0009765625 645.061523438 c 4
 72 719.5703125 132.491210938 780 207 780 c 4
 281.508789062 780 342 719.508789062 342 645 c 5
 342 612 l 5
 270.000976562 612 l 5
 270 645 l 5
 270 679.770507812 241.770507812 708 207 708 c 4
 172.229492188 708 144.000976562 679.83203125 144.000976562 645.061523438 c 4xd8
 144.001953125 568.047851562 173.006835938 493.91796875 224.537109375 436.674804688 c 4
 299.916992188 352.9375 342.000976562 244.668945312 342.000976562 132 c 4
 342.000976562 52.5244140625 277.4765625 -12 198.000976562 -12 c 4
 118.524414062 -12 54.0009765625 52.5244140625 54.0009765625 132 c 4
 54 180 l 5
 126.000976562 180 l 5
 126.000976562 132 l 5xe8
EndSplineSet
EndChar

StartChar: C
Encoding: 67 67 5
Width: 396
Flags: HW
HStem: -12 72<160.79 257.813> 708 72<160.789 257.813>
VStem: 54 72.002<124.506 647.814> 270.04 72<72.2587 121.031 646.909 695.69>
LayerCount: 2
Fore
SplineSet
342.040039062 646.909179688 m 1
 342.040039062 720.364257812 282.404296875 780 208.94921875 780 c 0
 143.010742188 780 88.2041015625 731.817382812 77.6796875 668.848632812 c 0
 62.10546875 575.663085938 54 483.1953125 54 385.616210938 c 0
 54 288.036132812 62.1064453125 192.333007812 77.6806640625 99.146484375 c 0
 88.20703125 36.1767578125 143.01171875 -12 208.94921875 -12 c 0
 282.404296875 -12 342.040039062 47.576171875 342.040039062 121.03125 c 0
 342.040039062 120.971679688 342.040039062 168 342.040039062 168 c 1
 270.040039062 168 l 1
 270.040039062 168 270.040039062 121.057617188 270.040039062 121.07421875 c 0
 270.040039062 87.357421875 242.666015625 60 208.94921875 60 c 0
 178.68359375 60 153.526367188 82.1171875 148.6953125 111.017578125 c 0
 133.76953125 200.322265625 126.001953125 292.034179688 126.001953125 385.548828125 c 0
 126.001953125 479.061523438 133.76953125 567.677734375 148.694335938 656.98046875 c 0
 153.525390625 685.884765625 178.682617188 708 208.94921875 708 c 0
 242.666015625 708 270.040039062 680.625976562 270.040039062 646.909179688 c 0
 270.040039062 624 l 1
 342.040039062 624 l 1
 342.040039062 646.909179688 l 1
EndSplineSet
EndChar

StartChar: D
Encoding: 68 68 6
Width: 396
Flags: HW
LayerCount: 2
Fore
SplineSet
179.712890625 696 m 1
 215.717773438 696 245.587890625 669.444335938 250.881835938 634.909179688 c 0
 263.50390625 552.561523438 270.051757812 468.224609375 270.051757812 382.370117188 c 0
 270.051757812 296.516601562 263.50390625 215.438476562 250.881835938 133.091796875 c 0
 245.588867188 98.5556640625 215.717773438 72 179.712890625 72 c 0
 126 72 l 1
 126 696 l 1
 179.712890625 696 l 1
179.712890625 0 m 1
 251.723632812 0 311.462890625 53.1142578125 322.05078125 122.182617188 c 0
 335.22265625 208.110351562 342.053710938 292.711914062 342.053710938 382.298828125 c 0
 342.053710938 471.88671875 335.221679688 559.891601562 322.049804688 645.819335938 c 0
 311.461914062 714.887695312 251.72265625 768 179.712890625 768 c 0
 54 768 l 1
 54 0 l 1
 179.712890625 0 l 1
EndSplineSet
EndChar

StartChar: E
Encoding: 69 69 7
Width: 366
Flags: HW
HStem: 0 72<126 312> 360 72<126 246> 696 72<126 306>
VStem: 54 72<72 360 432 696>
LayerCount: 2
Fore
SplineSet
306 768 m 1
 306 696 l 1
 126 696 l 1
 126 432 l 1
 246 432 l 1
 246 360 l 1
 126 360 l 1
 126 72 l 1
 312 72 l 1
 312 0 l 1
 54 0 l 1
 54 768 l 5
 306 768 l 1
EndSplineSet
EndChar

StartChar: F
Encoding: 70 70 8
Width: 366
Flags: HW
VStem: 54 258
LayerCount: 2
Fore
SplineSet
126 360 m 1
 234 360 l 1
 234 432 l 1
 126 432 l 1
 126 696 l 1
 312 696 l 1
 312 768 l 1
 54 768 l 1
 54 0 l 1
 126 0 l 1
 126 360 l 1
EndSplineSet
EndChar

StartChar: G
Encoding: 71 71 9
Width: 396
Flags: HW
LayerCount: 2
Fore
SplineSet
342.040039062 121.090820312 m 5
 342.040039062 48.7265625 282.404296875 -12 208.94921875 -12 c 0
 143.01171875 -12 88.2080078125 36.1767578125 77.6806640625 99.146484375 c 0
 62.1064453125 192.333007812 54 288.036132812 54 385.616210938 c 0
 54 483.1953125 62.10546875 575.663085938 77.6796875 668.848632812 c 0
 88.2041015625 731.817382812 143.010742188 780 208.94921875 780 c 0
 282.404296875 780 342.040039062 720.364257812 342.040039062 646.909179688 c 0
 342.040039062 624 l 1
 270.040039062 624 l 1
 270.040039062 646.909179688 l 1
 270.040039062 680.625976562 242.666015625 708 208.94921875 708 c 0
 178.682617188 708 153.525390625 685.884765625 148.694335938 656.98046875 c 0
 133.76953125 567.677734375 126.001953125 479.061523438 126.001953125 385.548828125 c 0
 126.001953125 292.034179688 133.76953125 200.322265625 148.6953125 111.017578125 c 0
 153.526367188 82.1171875 178.68359375 60 208.94921875 60 c 0
 242.666015625 60 270.040039062 88.46484375 270.040039062 121.090820312 c 1
 270.040039062 288 l 1
 210.040039062 288 l 1
 210.040039062 360 l 1
 342.040039062 360 l 1
 342.040039062 121.090820312 l 5
EndSplineSet
EndChar

StartChar: H
Encoding: 72 72 10
Width: 396
Flags: HW
LayerCount: 2
Fore
SplineSet
54 768 m 5
 126 768 l 5
 126 432 l 5
 270 432 l 5
 270 768 l 5
 342 768 l 5
 342 0 l 5
 270 0 l 5
 270 360 l 5
 126 360 l 5
 126 0 l 5
 54 0 l 5
 54 768 l 5
EndSplineSet
EndChar

StartChar: N
Encoding: 78 78 11
Width: 396
Flags: HW
LayerCount: 2
Fore
SplineSet
126 516 m 1
 282.000976562 0 l 1
 342 0 l 1
 342 768 l 1
 270 768 l 1
 270 768 269.850585938 288.984375 270 288.4921875 c 1
 125.033203125 768 l 1
 54 768 l 1
 54 0 l 1
 126 0 l 1
 126 516 l 1
EndSplineSet
EndChar

StartChar: O
Encoding: 79 79 12
Width: 420
Flags: HW
HStem: -12 72<160.142 259.939> 708 72<160.143 259.939>
VStem: 54 72.002<123.39 646.732> 294.081 72.001<121.269 644.611>
LayerCount: 2
Fore
SplineSet
271.573242188 655.865234375 m 4
 266.657226562 685.401367188 240.9609375 708 210.041992188 708 c 4
 179.122070312 708 153.424804688 685.39453125 148.509765625 655.861328125 c 4
 133.706054688 566.91015625 126.001953125 478.677734375 126.001953125 385.552734375 c 4
 126.001953125 292.426757812 133.705078125 201.090820312 148.508789062 112.138671875 c 4
 153.422851562 82.6083984375 179.12109375 60 210.041015625 60 c 4
 240.9609375 60 266.658203125 82.6044921875 271.573242188 112.138671875 c 4
 286.376953125 201.08984375 294.081054688 289.322265625 294.081054688 382.446289062 c 4
 294.081054688 475.5703125 286.376953125 566.9140625 271.573242188 655.865234375 c 4
342.596679688 100.317382812 m 4
 332.005859375 36.6953125 276.6484375 -12 210.041015625 -12 c 4
 143.432617188 -12 88.07421875 36.6982421875 77.486328125 100.31640625 c 4
 62.0380859375 193.137695312 54 288.4453125 54 385.62109375 c 4
 54 482.794921875 62.0390625 574.86328125 77.486328125 667.682617188 c 4
 88.0751953125 731.306640625 143.43359375 780 210.041992188 780 c 4
 276.6484375 780 332.005859375 731.302734375 342.596679688 667.681640625 c 4
 358.044921875 574.857421875 366.08203125 479.551757812 366.08203125 382.37890625 c 4
 366.08203125 285.205078125 358.044921875 193.140625 342.596679688 100.317382812 c 4
EndSplineSet
EndChar

StartChar: R
Encoding: 82 82 13
Width: 396
Flags: HW
HStem: 0 21G<54 126.001 262.077 342.001> 336 72<126.001 176.847> 696 72<126.001 227.821>
VStem: 54 72.001<0 336 408 696> 269.896 71.9648<0 29.2272 451.909 652.097>
LayerCount: 2
Fore
SplineSet
163.981445312 335.997070312 m 1
 126.000976562 336 l 1
 126.000976562 0 l 1
 54 0 l 1
 54 768 l 1
 163.981445312 768 l 1
 232.865234375 768 292.041015625 726.581054688 317.95703125 667.19921875 c 0
 333.33203125 631.97265625 341.861328125 593.083984375 341.861328125 552.21875 c 0
 341.861328125 511.3515625 333.330078125 472.021484375 317.953125 436.791992188 c 0
 303.215820312 403.028320312 277.961914062 375.266601562 246.02734375 357.39453125 c 1
 342.000976562 0 l 1
 267.44921875 0 l 1
 177.051757812 336.506835938 l 1
 172.6875 336.166015625 168.432617188 335.997070312 163.981445312 335.997070312 c 1
163.981445312 407.997070312 m 1
 203.342773438 407.997070312 237.15625 431.666015625 251.965820312 465.595703125 c 0
 263.498046875 492.017578125 269.896484375 521.513671875 269.896484375 552.1640625 c 0
 269.896484375 582.813476562 263.5 611.98046875 251.967773438 638.400390625 c 0
 237.159179688 672.33203125 203.342773438 696 163.981445312 696 c 1
 126.000976562 696 l 1
 126.000976562 408 l 1
 163.981445312 407.997070312 l 1
EndSplineSet
EndChar

StartChar: I
Encoding: 73 73 14
Width: 180
Flags: HW
HStem: 0 21G<54 126> 748 20G<54 126> 748 20G<54 126>
VStem: 54 72<0 768>
LayerCount: 2
Fore
SplineSet
54 768 m 5xd0
 126 768 l 5
 126 0 l 5
 54 0 l 5
 54 768 l 5xd0
EndSplineSet
EndChar

StartChar: J
Encoding: 74 74 15
Width: 396
Flags: HW
HStem: -12.0059 72.0029<134.587 248.533> 748 20G<270.004 342.004> 748 20G<270.004 342.004>
VStem: 270.005 72<81.4841 768>
LayerCount: 2
Fore
SplineSet
342.004882812 138 m 1xd0
 342.005859375 61.666015625 285.057617188 -1.0390625 211.583007812 -10.716796875 c 0
 205.125 -11.5673828125 198.538085938 -12.005859375 191.849609375 -12.005859375 c 0
 129.877929688 -12.005859375 76.857421875 25.556640625 54 79.22265625 c 1
 54 79.2236328125 120.243164062 107.434570312 120.243164062 107.434570312 c 1
 132.12890625 79.529296875 159.69921875 59.9970703125 191.923828125 59.9970703125 c 0
 195.40234375 59.9970703125 198.827148438 60.224609375 202.185546875 60.6669921875 c 0
 240.392578125 65.7001953125 270.005859375 98.5966796875 270.004882812 138 c 1
 270.00390625 768 l 1
 342.00390625 768 l 1
 342.004882812 138 l 1xd0
EndSplineSet
EndChar

StartChar: K
Encoding: 75 75 16
Width: 396
Flags: HW
LayerCount: 2
Fore
SplineSet
126 312 m 5
 155.84375 378.709960938 l 1
 266.965820312 0 l 1
 342 0 l 1
 201.158203125 480 l 1
 330 768 l 1
 251.125 768 l 1
 126 488.309570312 l 1
 126 768 l 1
 54 768 l 1
 54 0 l 1
 126 0 l 1
 126 312 l 5
EndSplineSet
EndChar

StartChar: L
Encoding: 76 76 17
Width: 366
Flags: HW
HStem: 0 72<126 312> 748 20G<54 126> 748 20G<54 126>
VStem: 54 72<72 768>
LayerCount: 2
Fore
SplineSet
54 0 m 5xd0
 54 768 l 5
 126 768 l 5
 126 72 l 5
 312 72 l 5
 312 0 l 5
 54 0 l 5xd0
EndSplineSet
EndChar

StartChar: M
Encoding: 77 77 18
Width: 444
Flags: HW
LayerCount: 2
Fore
SplineSet
126 504 m 5
 222 168 l 1
 318 504 l 1
 318 0 l 1
 390 0 l 1
 390 768 l 1
 318.547851562 768 l 1
 318.547851562 768 222 430.08203125 222 430.083007812 c 1
 125.453125 768 l 1
 54 768 l 1
 54 0 l 1
 126 0 l 1
 126 504 l 5
EndSplineSet
EndChar

StartChar: zero
Encoding: 48 48 19
Width: 420
Flags: HW
HStem: -12 72<160.142 259.939> 708 72<160.143 259.939>
VStem: 54 72.002<123.39 646.732> 294.081 72.001<121.269 644.611>
LayerCount: 2
Fore
SplineSet
271.573242188 655.865234375 m 4
 266.657226562 685.401367188 240.9609375 708 210.041992188 708 c 4
 179.122070312 708 153.424804688 685.39453125 148.509765625 655.861328125 c 4
 133.706054688 566.91015625 126.001953125 478.677734375 126.001953125 385.552734375 c 4
 126.001953125 292.426757812 133.705078125 201.090820312 148.508789062 112.138671875 c 4
 153.422851562 82.6083984375 179.12109375 60 210.041015625 60 c 4
 240.9609375 60 266.658203125 82.6044921875 271.573242188 112.138671875 c 4
 286.376953125 201.08984375 294.081054688 289.322265625 294.081054688 382.446289062 c 4
 294.081054688 475.5703125 286.376953125 566.9140625 271.573242188 655.865234375 c 4
342.596679688 100.317382812 m 4
 332.005859375 36.6953125 276.6484375 -12 210.041015625 -12 c 4
 143.432617188 -12 88.07421875 36.6982421875 77.486328125 100.31640625 c 4
 62.0380859375 193.137695312 54 288.4453125 54 385.62109375 c 4
 54 482.794921875 62.0390625 574.86328125 77.486328125 667.682617188 c 4
 88.0751953125 731.306640625 143.43359375 780 210.041992188 780 c 4
 276.6484375 780 332.005859375 731.302734375 342.596679688 667.681640625 c 4
 358.044921875 574.857421875 366.08203125 479.551757812 366.08203125 382.37890625 c 4
 366.08203125 285.205078125 358.044921875 193.140625 342.596679688 100.317382812 c 4
EndSplineSet
EndChar

StartChar: P
Encoding: 80 80 20
Width: 396
Flags: HW
HStem: 336 72<163.98 227.818> 696 72<163.981 227.821>
VStem: 269.896 71.9648<451.908 652.097>
LayerCount: 2
Fore
SplineSet
163.98046875 335.997070312 m 1
 232.862304688 335.997070312 292.03515625 377.412109375 317.953125 436.791992188 c 0
 333.330078125 472.021484375 341.861328125 511.3515625 341.861328125 552.21875 c 0
 341.861328125 593.083984375 333.33203125 631.97265625 317.95703125 667.19921875 c 0
 292.041015625 726.581054688 232.865234375 768 163.981445312 768 c 1
 54 768 l 1
 54 0 l 1
 126 0 l 1
 126 336 l 1
 163.98046875 335.997070312 l 1
163.981445312 696 m 1
 203.342773438 696 237.158203125 672.330078125 251.966796875 638.399414062 c 0
 263.498046875 611.978515625 269.896484375 582.813476562 269.896484375 552.1640625 c 0
 269.896484375 521.513671875 263.498046875 492.015625 251.965820312 465.594726562 c 0
 237.15625 431.6640625 203.342773438 407.997070312 163.98046875 407.997070312 c 1
 126 408 l 1
 126 696 l 1
 163.981445312 696 l 1
EndSplineSet
EndChar

StartChar: Q
Encoding: 81 81 21
Width: 420
Flags: HW
LayerCount: 2
Fore
SplineSet
148.508789062 112.133789062 m 0
 133.705078125 201.08203125 126.000976562 292.426757812 126.000976562 385.552734375 c 0
 126.000976562 478.677734375 133.705078125 566.91015625 148.508789062 655.861328125 c 0
 153.423828125 685.395507812 179.12109375 708 210.041015625 708 c 0
 240.959960938 708 266.657226562 685.393554688 271.573242188 655.861328125 c 0
 286.377929688 566.90625 294.080078125 475.571289062 294.080078125 382.446289062 c 0
 294.080078125 289.322265625 286.377929688 201.08984375 271.573242188 112.138671875 c 0
 270.259765625 104.24609375 267.420898438 96.7275390625 263.436523438 90.1298828125 c 0
 230.258789062 140.834960938 l 1
 180.041015625 108 l 1
 180.041015625 108 211.3984375 60.0146484375 211.397460938 60.0146484375 c 0
 210.939453125 60.0048828125 210.501953125 60 210.041015625 60 c 0
 179.12109375 60 153.423828125 82.599609375 148.508789062 112.133789062 c 0
77.4853515625 100.31640625 m 0
 88.0732421875 36.6982421875 143.432617188 -12 210.041015625 -12 c 0
 225.318359375 -12 240.036132812 -9.4072265625 253.725585938 -4.701171875 c 1
 282.041015625 -48 l 1
 332.258789062 -15.1650390625 l 1
 304.696289062 26.9951171875 l 0
 324.258789062 46.4091796875 337.870117188 71.9296875 342.594726562 100.313476562 c 0
 358.044921875 193.1328125 366.08203125 285.205078125 366.08203125 382.37890625 c 0
 366.08203125 479.551757812 358.043945312 574.857421875 342.595703125 667.681640625 c 0
 332.004882812 731.302734375 276.647460938 780 210.041015625 780 c 0
 143.432617188 780 88.07421875 731.306640625 77.4853515625 667.682617188 c 0
 62.0380859375 574.86328125 54 482.794921875 54 385.62109375 c 0
 54 288.4453125 62.037109375 193.137695312 77.4853515625 100.31640625 c 0
EndSplineSet
EndChar

StartChar: T
Encoding: 84 84 22
Width: 366
Flags: HW
HStem: 0 21G<147 219> 702 66<54.001 147 219 312.001>
VStem: 147 72<0 702>
LayerCount: 2
Fore
SplineSet
219 0 m 5
 147 0 l 5
 147 702 l 5
 54 702 l 5
 54.0009765625 768 l 5
 312.000976562 768 l 5
 312.000976562 702 l 5
 219 702 l 5
 219 0 l 5
EndSplineSet
EndChar

StartChar: U
Encoding: 85 85 23
Width: 396
Flags: HW
LayerCount: 2
Fore
SplineSet
126.000976562 132 m 5
 126.000976562 105.340820312 140.4453125 82.09375 162.000976562 69.646484375 c 0
 172.576171875 63.5400390625 185 60.0458984375 198.078125 60.0458984375 c 0
 211.157226562 60.0458984375 223.42578125 63.5400390625 234.000976562 69.646484375 c 0
 255.556640625 82.09375 270.000976562 105.340820312 270.000976562 132 c 1
 270.000976562 768 l 1
 342 768 l 1
 342.000976562 132 l 0
 342.000976562 78.681640625 313.114257812 32.18359375 270.000976562 7.2919921875 c 0
 248.850585938 -4.9189453125 224.3125 -11.908203125 198.155273438 -11.908203125 c 0
 171.998046875 -11.908203125 147.151367188 -4.9189453125 126.000976562 7.2919921875 c 0
 82.8876953125 32.18359375 54.0009765625 78.681640625 54.0009765625 132 c 1
 54 768 l 1
 126.000976562 768 l 1
 126.000976562 132 l 5
EndSplineSet
EndChar

StartChar: W
Encoding: 87 87 24
Width: 528
Flags: HW
VStem: 150 66<0 64.512> 239.44 49.1191<703.491 768> 312 66<0 64.512>
CounterMasks: 1 e0
LayerCount: 2
Fore
SplineSet
401.436523438 768 m 1
 345 316.494140625 l 1
 345 316.494140625 288.55859375 768 288.559570312 768 c 1
 239.440429688 768 l 1
 183.000976562 316.485351562 l 1
 126.5625 768 l 1
 54 768 l 1
 150 0 l 5
 216 0 l 1
 264 384 l 1
 312 0 l 1
 378 0 l 1
 474 768 l 1
 401.436523438 768 l 1
EndSplineSet
EndChar

StartChar: X
Encoding: 88 88 25
Width: 396
Flags: HW
HStem: 0 21G<54 133.982 262.018 342> 748 20G<60 139.98 256.019 336> 748 20G<60 139.98 256.019 336>
VStem: 54 288
LayerCount: 2
Fore
SplineSet
134.578125 768 m 1xd0
 198 533.176757812 l 1
 261.420898438 768 l 1
 336 768 l 1
 235.290039062 395.106445312 l 1
 342 0 l 1
 267.419921875 0 l 1
 198 257.036132812 l 1
 128.580078125 0 l 1
 54 0 l 1
 160.24609375 393.38671875 l 1
 60 768 l 1
 134.578125 768 l 1xd0
EndSplineSet
EndChar

StartChar: Y
Encoding: 89 89 26
Width: 396
Flags: HW
VStem: 54 73.8916<733.056 768> 162 72<300 334.944> 268.107 73.8926<733.056 768>
LayerCount: 2
Fore
SplineSet
54 768 m 1
 162 300 l 1
 162 0 l 1
 234 0 l 1
 234 300 l 1
 342 768 l 1
 268.107421875 768 l 1
 198 464.200195312 l 1
 127.891601562 768 l 5
 54 768 l 1
EndSplineSet
EndChar

StartChar: Z
Encoding: 90 90 27
Width: 396
Flags: HW
HStem: 0 72<133.693 342> 696 72<72 262.306>
VStem: 54 288<0 72>
LayerCount: 2
Fore
SplineSet
72 768 m 1
 342 768 l 1
 342 708 l 1
 133.693359375 72 l 1
 342 72 l 1
 342 0 l 1
 54 0 l 1
 54 60 l 1
 262.305664062 696 l 1
 72 696 l 1
 72 768 l 1
EndSplineSet
EndChar

StartChar: one
Encoding: 49 49 28
Width: 240
Flags: HW
VStem: 54 132<720.001 732.171>
LayerCount: 2
Fore
SplineSet
119.982421875 767.979492188 m 1
 102.352539062 746.913085938 79.85546875 730.430664062 54.00390625 720.000976562 c 1
 54 660 l 5
 114 660 l 1
 114 0 l 1
 186 0 l 1
 186 768 l 1
 119.982421875 767.979492188 l 1
119.999023438 767.999023438 m 0
 119.986328125 767.9921875 119.973632812 767.986328125 119.9609375 767.979492188 c 1024
EndSplineSet
EndChar

StartChar: two
Encoding: 50 50 29
Width: 396
Flags: HW
HStem: 707.992 71.96<143.793 252.495>
VStem: 54.015 72<636 688.343> 269.971 72.0059<538.365 626.688 636.077 671.503>
LayerCount: 2
Fore
SplineSet
126 636 m 5
 126 669.286132812 148.659179688 697.3203125 179.364257812 705.546875 c 0
 185.31640625 707.141601562 191.5703125 707.9921875 198.022460938 707.9921875 c 0
 224.681640625 707.9921875 247.908203125 693.556640625 260.353515625 672 c 0
 266.458984375 661.424804688 269.954101562 649.15625 269.954101562 636.077148438 c 0
 269.954101562 632.896484375 270.15234375 629.711914062 269.39453125 626.6875 c 0
 257.810546875 559.571289062 231.55078125 496.329101562 195.0390625 441.814453125 c 0
 110.146484375 315.063476562 58.6640625 162.626953125 54.0009765625 0.0009765625 c 1
 342 0 l 1
 342 72 l 1
 131.700195312 72.01171875 l 1
 146.926757812 192.34765625 190.536132812 305.616210938 254.999023438 401.956054688 c 0
 297.454101562 465.405273438 330.234375 538.75390625 340.485351562 617.413085938 c 0
 341.286132812 623.557617188 341.959960938 629.723632812 341.959960938 636.0859375 c 0
 341.959960938 671.27734375 329.30859375 703.537109375 308.310546875 728.561523438 c 0
 281.88671875 760.052734375 242.231445312 779.952148438 197.947265625 779.952148438 c 0
 180.671875 779.952148438 164.102539062 776.904296875 148.75 771.315429688 c 0
 93.4716796875 751.192382812 54 698.200195312 54 636 c 0
 53.9990234375 636 54 612 54 612 c 1
 126 612 l 1
 126 636 l 5
194.765625 441.995117188 m 1
 195.310546875 441.633789062 l 1025
254.7265625 402.13671875 m 1
 255.270507812 401.774414062 l 1025
EndSplineSet
EndChar

StartChar: three
Encoding: 51 51 30
Width: 396
Flags: HW
HStem: -12 72<145.893 245.187> 384 72<174 239.313> 708 72<137.619 242.205>
VStem: 54 72<79.8944 156 648 696.381> 258.016 72.002<73.0886 225.38 229.524 378.346 493.237 691.84> 270.002 72<83.7568 370.306>
LayerCount: 2
Fore
SplineSet
174 456 m 5xf4
 197.400390625 456 l 1
 219.60546875 456 238.30078125 471.124023438 243.7734375 491.61328125 c 0
 253.01953125 526.234375 258.015625 562.048828125 258.015625 599.568359375 c 0
 258.015625 618.703125 256.733398438 637.541992188 254.250976562 656.000976562 c 0
 250.30859375 685.310546875 225.166992188 708 194.786132812 708 c 0
 186 708 l 0
 152.884765625 708 126 681.115234375 126 648 c 1
 54 648 l 0
 54 720.852539062 113.147460938 780 186 780 c 0
 194.786132812 780 l 1
 261.625 780 316.931640625 730.078125 325.606445312 665.599609375 c 0
 328.515625 643.974609375 330.017578125 621.908203125 330.017578125 599.493164062 c 0xf8
 330.017578125 555.541992188 324.16796875 513.58984375 313.3359375 473.033203125 c 0
 308.790039062 456.012695312 300.623046875 440.454101562 289.6640625 427.295898438 c 1
 310.07421875 410.021484375 324.442382812 385.819335938 329.657226562 358.500976562 c 0
 337.76171875 316.045898438 342.001953125 272.2265625 342.001953125 227.424804688 c 0
 342.001953125 183.76953125 337.9765625 142.2109375 330.272460938 100.774414062 c 0
 325.079101562 72.84375 311.48046875 47.720703125 292.178710938 28.4189453125 c 0
 267.19921875 3.439453125 232.6796875 -12 194.59765625 -12 c 0
 192 -12 l 1
 153.916992188 -12 119.3984375 3.439453125 94.4189453125 28.4189453125 c 0
 69.439453125 53.3984375 54 87.91796875 54 126 c 0
 54 156 l 1
 126 156 l 1
 126 126 l 1
 126 107.787109375 133.383789062 91.27734375 145.330078125 79.3310546875 c 0
 157.27734375 67.3837890625 173.786132812 60 192 60 c 0
 194.59765625 60 l 1
 212.810546875 60 229.319335938 67.3837890625 241.266601562 79.3310546875 c 0
 250.498046875 88.5625 257.002929688 100.577148438 259.486328125 113.935546875 c 0
 266.392578125 151.0859375 270.001953125 188.344726562 270.001953125 227.484375 c 0
 270.001953125 267.650390625 266.19921875 306.936523438 258.93359375 345 c 0
 254.700195312 367.176757812 235.186523438 384 211.784179688 384 c 1
 174 384 l 1
 174 456 l 5xf4
EndSplineSet
EndChar

StartChar: four
Encoding: 52 52 31
Width: 444
Flags: HW
HStem: 0 21G<270 342> 180 66<125.427 270 342 390> 748 20G<261.724 342> 748 20G<261.724 342>
VStem: 270 72<0 180 246 595.383>
LayerCount: 2
Fore
SplineSet
54 246 m 1xe8
 270 768 l 1
 342 768 l 1
 342 246 l 1
 390 246 l 1
 390 180 l 1
 342 180 l 1
 342 0 l 1
 270 0 l 1
 270 180 l 1
 54 180 l 1
 54 246 l 1xe8
270 595.3828125 m 5
 125.426757812 246 l 1
 270 246 l 1
 270 595.3828125 l 5
EndSplineSet
EndChar

StartChar: five
Encoding: 53 53 32
Width: 396
Flags: HW
HStem: -11.8877 71.96<76.6027 202.361> 432 72<144.46 241.074>
VStem: 60 73.9834<384.025 421.317> 269.884 71.9756<148.622 401.632>
LayerCount: 2
Fore
SplineSet
133.983398438 384.025390625 m 1
 139.576171875 411.362304688 163.78515625 432 192.765625 432 c 0
 218.5546875 432 240.544921875 415.719726562 249.021484375 392.864257812 c 0
 262.512695312 356.499023438 269.883789062 317.172851562 269.883789062 276.137695312 c 0
 269.883789062 220.625 256.307617188 167.759765625 232.42578125 121.602539062 c 0
 222.370117188 102.171875 207.077148438 86.18359375 188.1796875 75.2734375 c 0
 171.435546875 65.6064453125 152.009765625 60.072265625 131.301757812 60.072265625 c 0
 114.467773438 60.072265625 98.26171875 63.7158203125 83.875 70.2783203125 c 1
 83.875 70.2783203125 54.0029296875 4.7705078125 54 4.7705078125 c 1
 77.4755859375 -5.9365234375 103.901367188 -11.8876953125 131.368164062 -11.8876953125 c 0
 162.265625 -11.8876953125 191.412109375 -4.337890625 217.064453125 9.015625 c 0
 251.122070312 26.7451171875 278.715820312 54.404296875 296.368164062 88.509765625 c 0
 325.376953125 144.555664062 341.859375 208.755859375 341.859375 276.168945312 c 0
 341.859375 325.993164062 332.91015625 373.743164062 316.529296875 417.8984375 c 0
 297.881835938 468.180664062 249.501953125 504 192.765625 504 c 0
 171.525390625 504 151.321289062 498.89453125 133.537109375 489.965820312 c 1
 136.883789062 696 l 1
 330 696 l 1
 330 768 l 1
 66 768 l 1
 60 384 l 1
 133.983398438 384.025390625 l 1
EndSplineSet
EndChar

StartChar: six
Encoding: 54 54 33
Width: 396
Flags: HW
HStem: -11.9219 71.9414<149.697 246.347> 383.989 71.9512<149.448 244.758>
VStem: 54 72.002<78.8729 363.995> 270.077 72.001<79.6619 364.338>
LayerCount: 2
Fore
SplineSet
69.376953125 431.620117188 m 0
 91.0703125 579.057617188 177.741210938 705.483398438 299.88671875 780 c 1
 299.900390625 780.0078125 337.374023438 718.528320312 337.38671875 718.536132812 c 1
 239.947265625 659.090820312 169.193359375 560.97265625 145.146484375 445.674804688 c 0
 161.6171875 452.215820312 179.28125 455.940429688 197.953125 455.940429688 c 0
 227.897460938 455.940429688 255.889648438 446.54296875 278.708007812 430.565429688 c 0
 312.41796875 406.961914062 335.188476562 368.909179688 338.317382812 325.463867188 c 0
 340.809570312 290.868164062 342.078125 255.93359375 342.078125 220.706054688 c 0
 342.078125 185.478515625 340.809570312 153.131835938 338.317382812 118.53515625 c 0
 335.186523438 75.0908203125 312.41796875 37.037109375 278.708007812 13.4345703125 c 0
 255.888671875 -2.54296875 228.1171875 -11.921875 198.172851562 -11.921875 c 0
 163.801757812 -11.921875 132.077148438 0.3955078125 107.635742188 20.904296875 c 0
 79.326171875 44.658203125 60.576171875 79.4345703125 57.759765625 118.533203125 c 0
 55.2666015625 153.127929688 54 188.065429688 54 223.293945312 c 0
 54 294.986328125 59.240234375 362.7265625 69.376953125 431.620117188 c 0
129.575195312 123.709960938 m 0
 130.950195312 104.631835938 140.098632812 87.65234375 153.916992188 76.05859375 c 0
 165.845703125 66.0498046875 181.3046875 60.01953125 198.080078125 60.01953125 c 0
 214.854492188 60.01953125 230.232421875 66.0498046875 242.161132812 76.05859375 c 0
 255.978515625 87.6513671875 265.127929688 104.626953125 266.50390625 123.708984375 c 0
 268.87109375 156.576171875 270.077148438 187.3046875 270.077148438 220.770507812 c 0
 270.077148438 254.236328125 268.87109375 287.423828125 266.50390625 320.290039062 c 0
 265.026367188 340.788085938 254.58984375 358.833007812 239.029296875 370.416992188 c 0
 227.596679688 378.927734375 213.341796875 383.989257812 198.0078125 383.989257812 c 0
 180.510742188 383.989257812 164.534179688 377.428710938 152.40625 366.635742188 c 0
 139.438476562 355.094726562 130.899414062 338.66796875 129.575195312 320.291992188 c 0
 127.20703125 287.424804688 126.001953125 256.692382812 126.001953125 223.2265625 c 0
 126.001953125 189.759765625 127.20703125 156.577148438 129.575195312 123.709960938 c 0
EndSplineSet
EndChar

StartChar: nine
Encoding: 57 57 34
Width: 396
Flags: HW
HStem: 312.138 71.9512<151.32 246.63> 708.059 71.9414<149.731 246.381>
VStem: 54 72.001<403.741 688.416> 270.076 72.002<404.083 689.205>
LayerCount: 2
Fore
SplineSet
326.701171875 336.458007812 m 0
 305.0078125 189.020507812 218.336914062 62.5947265625 96.19140625 -11.921875 c 1
 96.177734375 -11.9296875 58.7041015625 49.5498046875 58.69140625 49.5419921875 c 1
 156.130859375 108.987304688 226.884765625 207.10546875 250.931640625 322.403320312 c 0
 234.4609375 315.862304688 216.796875 312.137695312 198.125 312.137695312 c 0
 168.180664062 312.137695312 140.188476562 321.53515625 117.370117188 337.512695312 c 0
 83.66015625 361.116210938 60.8896484375 399.168945312 57.7607421875 442.614257812 c 0
 55.2685546875 477.209960938 54 512.14453125 54 547.372070312 c 0
 54 582.599609375 55.2685546875 614.946289062 57.7607421875 649.54296875 c 0
 60.8916015625 692.987304688 83.66015625 731.041015625 117.370117188 754.643554688 c 0
 140.189453125 770.62109375 167.9609375 780 197.905273438 780 c 0
 232.276367188 780 264.000976562 767.682617188 288.442382812 747.173828125 c 0
 316.751953125 723.419921875 335.501953125 688.643554688 338.318359375 649.544921875 c 0
 340.811523438 614.950195312 342.078125 580.012695312 342.078125 544.784179688 c 0
 342.078125 473.091796875 336.837890625 405.3515625 326.701171875 336.458007812 c 0
266.502929688 644.368164062 m 0
 265.127929688 663.446289062 255.979492188 680.42578125 242.161132812 692.01953125 c 0
 230.232421875 702.028320312 214.7734375 708.05859375 197.998046875 708.05859375 c 0
 181.223632812 708.05859375 165.845703125 702.028320312 153.916992188 692.01953125 c 0
 140.099609375 680.426757812 130.950195312 663.451171875 129.57421875 644.369140625 c 0
 127.20703125 611.501953125 126.000976562 580.7734375 126.000976562 547.307617188 c 0
 126.000976562 513.841796875 127.20703125 480.654296875 129.57421875 447.788085938 c 0
 131.051757812 427.290039062 141.48828125 409.245117188 157.048828125 397.661132812 c 0
 168.481445312 389.150390625 182.736328125 384.088867188 198.0703125 384.088867188 c 0
 215.567382812 384.088867188 231.543945312 390.649414062 243.671875 401.442382812 c 0
 256.639648438 412.983398438 265.178710938 429.41015625 266.502929688 447.786132812 c 0
 268.87109375 480.653320312 270.076171875 511.385742188 270.076171875 544.8515625 c 0
 270.076171875 578.318359375 268.87109375 611.500976562 266.502929688 644.368164062 c 0
EndSplineSet
EndChar

StartChar: seven
Encoding: 55 55 35
Width: 396
Flags: HW
VStem: 78.0068 72.6631<0.0419922 134.267>
LayerCount: 2
Fore
SplineSet
78.0068359375 0.0419921875 m 0
 78.0068359375 0.0419921875 150.669921875 0.021484375 150.669921875 0.0234375 c 0
 189.551757812 239.666015625 254.611328125 475.954101562 341.545898438 695.985351562 c 1
 342 768 l 1
 54 768 l 1
 54 696 l 1
 264.58203125 696.009765625 l 1
 180.029296875 475.634765625 116.016601562 239.397460938 78.0068359375 0.0419921875 c 0
EndSplineSet
EndChar

StartChar: eight
Encoding: 56 56 62
Width: 396
Flags: HW
LayerCount: 2
Fore
SplineSet
72.421875 345.311523438 m 0
 78.498046875 370.26171875 91.78515625 392.204101562 109.999023438 409.14453125 c 1
 98.533203125 420.690429688 89.439453125 434.978515625 83.4052734375 450.59765625 c 0
 68.3916015625 489.463867188 60.1572265625 531.689453125 60.1572265625 575.825195312 c 0
 60.1572265625 619.959960938 68.3916015625 662.537109375 83.4052734375 701.403320312 c 0
 101.173828125 747.399414062 145.791992188 780 198.025390625 780 c 0
 250.258789062 780 294.876953125 747.403320312 312.645507812 701.405273438 c 0
 327.658203125 662.54296875 335.893554688 620.311523438 335.893554688 576.176757812 c 0
 335.893554688 532.041015625 327.657226562 489.458007812 312.645507812 450.596679688 c 0
 306.611328125 434.9765625 297.434570312 420.771484375 286.051757812 409.145507812 c 1
 304.221679688 392.215820312 317.563476562 370.223632812 323.627929688 345.311523438 c 0
 335.622070312 296.057617188 341.979492188 244.606445312 341.979492188 191.682617188 c 0
 341.979492188 163.782226562 340.282226562 137.27734375 336.854492188 110.301757812 c 0
 331.227539062 66.0283203125 305.026367188 28.1259765625 267.998046875 6.7490234375 c 0
 247.442382812 -5.1181640625 223.595703125 -11.9111328125 198.174804688 -11.9111328125 c 0
 172.754882812 -11.9111328125 148.607421875 -5.1181640625 128.052734375 6.7490234375 c 0
 91.0244140625 28.126953125 64.822265625 66.025390625 59.1953125 110.301757812 c 0
 55.7666015625 137.276367188 54 164.76953125 54 192.669921875 c 0
 54 245.59375 60.4287109375 296.056640625 72.421875 345.311523438 c 0
130.62109375 119.37890625 m 0
 133.353515625 97.8818359375 146.075195312 79.482421875 164.052734375 69.1025390625 c 0
 174.032226562 63.3408203125 185.755859375 60.04296875 198.09765625 60.04296875 c 0
 210.440429688 60.04296875 222.018554688 63.3408203125 231.998046875 69.1025390625 c 0
 249.975585938 79.4814453125 262.697265625 97.8828125 265.4296875 119.377929688 c 0
 268.4765625 143.357421875 269.985351562 166.91796875 269.985351562 191.71875 c 0
 269.985351562 238.76171875 264.333007812 284.494140625 253.671875 328.276367188 c 0
 250.061523438 343.10546875 240.736328125 355.673828125 228.092773438 363.473632812 c 0
 219.364257812 368.858398438 209.025390625 372.017578125 198.026367188 372.017578125 c 0
 181.618164062 372.017578125 166.8125 365.102539062 156.366210938 354.030273438 c 0
 149.666015625 346.928710938 144.763671875 338.072265625 142.377929688 328.27734375 c 0
 131.717773438 284.49609375 126.002929688 239.638671875 126.002929688 192.596679688 c 0
 126.002929688 167.795898438 127.57421875 143.357421875 130.62109375 119.37890625 c 0
245.483398438 476.543945312 m 0
 257.391601562 507.368164062 263.920898438 541.135742188 263.920898438 576.139648438 c 0
 263.920898438 611.143554688 257.390625 644.630859375 245.482421875 675.456054688 c 0
 238.125976562 694.499023438 219.65234375 708 198.025390625 708 c 0
 176.3984375 708 157.923828125 694.501953125 150.568359375 675.458007812 c 0
 138.66015625 644.6328125 132.130859375 610.86328125 132.130859375 575.859375 c 0
 132.130859375 540.85546875 138.66015625 507.3671875 150.568359375 476.541992188 c 0
 154.780273438 465.637695312 162.573242188 456.59765625 172.586914062 450.81640625 c 0
 180.059570312 446.501953125 188.837890625 444.032226562 198.079101562 444.032226562 c 0
 207.3203125 444.032226562 215.990234375 446.501953125 223.462890625 450.81640625 c 0
 233.477539062 456.598632812 241.270507812 465.639648438 245.483398438 476.543945312 c 0
EndSplineSet
EndChar

StartChar: period
Encoding: 46 46 63
Width: 204
Flags: HW
HStem: 0 104<61.4628 150.537>
VStem: 54 104<7.4628 96.5372>
LayerCount: 2
Fore
SplineSet
54 36 m 4
 54 62 76 84 102 84 c 4
 128 84 150 62 150 36 c 4
 150 10 128 -12 102 -12 c 4
 76 -12 54 10 54 36 c 4
EndSplineSet
EndChar

StartChar: colon
Encoding: 58 58 64
Width: 204
Flags: HW
LayerCount: 2
Fore
SplineSet
54 540 m 0
 54 566 76 588 102 588 c 0
 128 588 150 566 150 540 c 0
 150 514 128 492 102 492 c 0
 76 492 54 514 54 540 c 0
54 36 m 0
 54 62 76 84 102 84 c 0
 128 84 150 62 150 36 c 0
 150 10 128 -12 102 -12 c 0
 76 -12 54 10 54 36 c 0
EndSplineSet
EndChar

StartChar: dollar
Encoding: 36 36 66
Width: 396
Flags: HW
LayerCount: 2
Fore
SplineSet
126.000976562 132 m 2
 126.000976562 92.26171875 158.262695312 60 198.000976562 60 c 0
 237.73828125 60 270.000976562 92.26171875 270.000976562 132 c 0
 270.000976562 226.85546875 234.483398438 317.985351562 171.033203125 388.495117188 c 0
 107.560546875 459.029296875 72.001953125 550.234375 72.0009765625 645.061523438 c 0
 72.0009765625 705.278320312 111.510742188 756.299804688 166 773.657226562 c 1
 166 864 l 1
 238 864 l 1
 238 776.41796875 l 1
 297.587890625 762.393554688 342 708.842773438 342 645 c 2
 342 612 l 1
 270.000976562 612 l 1
 270 645 l 2
 270 679.770507812 241.770507812 708 207 708 c 0
 172.229492188 708 144.000976562 679.83203125 144.000976562 645.061523438 c 0
 144.001953125 568.047851562 173.006835938 493.91796875 224.537109375 436.674804688 c 0
 299.916992188 352.9375 342.000976562 244.668945312 342.000976562 132 c 0
 342.000976562 66.4013671875 298.041992188 10.98828125 238 -6.3623046875 c 1
 238 -96 l 1
 166 -96 l 1
 166 -8.4248046875 l 1
 101.903320312 6.142578125 54.0009765625 63.521484375 54.0009765625 132 c 2
 54 180 l 1
 126.000976562 180 l 1
 126.000976562 132 l 2
EndSplineSet
EndChar

StartChar: exclam
Encoding: 33 33 67
Width: 204
Flags: HW
LayerCount: 2
Fore
SplineSet
66 768 m 1
 138 768 l 9
 138 504 l 9
 126 216 l 1
 78 216 l 1
 66 504 l 1
 66 768 l 1
54 36 m 1
 54 62 76 84 102 84 c 1
 128 84 150 62 150 36 c 1
 150 10 128 -12 102 -12 c 1
 76 -12 54 10 54 36 c 1
EndSplineSet
EndChar

StartChar: quotedbl
Encoding: 34 34 68
Width: 324
Flags: HW
LayerCount: 2
Fore
SplineSet
186 768 m 5
 226 768 l 5
 270 768 l 5
 252 480 l 13
 204 480 l 5
 186 768 l 5
54 768 m 1
 94 768 l 1
 138 768 l 1
 120 480 l 9
 72 480 l 1
 54 768 l 1
EndSplineSet
EndChar

StartChar: quotesingle
Encoding: 39 39 69
Width: 192
Flags: HW
LayerCount: 2
Fore
SplineSet
54 768 m 5
 94 768 l 5
 138 768 l 5
 120 480 l 13
 72 480 l 5
 54 768 l 5
EndSplineSet
EndChar

StartChar: percent
Encoding: 37 37 70
Width: 716
Flags: HW
LayerCount: 2
Fore
SplineSet
525 768 m 21
 525 768 306.176757812 390.27734375 80 0 c 5
 161 0 l 5
 386 390 604 768 604 768 c 5
 525 768 l 21
471 768 m 29
 471 768 588 768 662 768 c 1053
534.020507812 -12 m 4
 491.768554688 -12 456.697265625 18.873046875 449.98828125 59.185546875 c 4
 442.102539062 106.563476562 438 155.2109375 438 204.810546875 c 4
 438 254.411132812 442.114257812 301.50390625 449.98828125 348.814453125 c 4
 456.698242188 389.129882812 491.76953125 420 534.021484375 420 c 4
 576.272460938 420 611.342773438 389.125976562 618.0546875 348.8125 c 4
 625.938476562 301.43359375 630.041015625 252.787109375 630.041015625 203.189453125 c 4
 630.041015625 153.588867188 625.927734375 106.498046875 618.053710938 59.185546875 c 4
 611.342773438 18.87109375 576.271484375 -12 534.020507812 -12 c 4
534.021484375 348 m 4
 527.508789062 348 522.052734375 343.221679688 521.009765625 336.958007812 c 4
 513.758789062 293.3828125 510.000976562 250.325195312 510.000976562 204.776367188 c 4
 510.000976562 159.224609375 513.768554688 114.549804688 521.009765625 71.041015625 c 4
 522.05078125 64.78125 527.508789062 60 534.020507812 60 c 4
 540.532226562 60 545.989257812 64.7783203125 547.032226562 71.0419921875 c 4
 554.283203125 114.6171875 558.041015625 157.674804688 558.041015625 203.22265625 c 4
 558.041015625 248.772460938 554.272460938 293.452148438 547.03125 336.9609375 c 4
 545.98828125 343.225585938 540.534179688 348 534.021484375 348 c 4
150.020507812 348 m 4
 107.768554688 348 72.697265625 378.873046875 65.98828125 419.185546875 c 4
 58.1025390625 466.563476562 54 515.2109375 54 564.810546875 c 4
 54 614.411132812 58.1142578125 661.50390625 65.98828125 708.814453125 c 4
 72.6982421875 749.129882812 107.76953125 780 150.021484375 780 c 4
 192.272460938 780 227.342773438 749.125976562 234.0546875 708.8125 c 4
 241.938476562 661.43359375 246.041015625 612.787109375 246.041015625 563.189453125 c 4
 246.041015625 513.588867188 241.927734375 466.498046875 234.053710938 419.185546875 c 4
 227.342773438 378.87109375 192.271484375 348 150.020507812 348 c 4
150.021484375 708 m 4
 143.508789062 708 138.052734375 703.221679688 137.009765625 696.958007812 c 4
 129.758789062 653.3828125 126.000976562 610.325195312 126.000976562 564.776367188 c 4
 126.000976562 519.224609375 129.768554688 474.549804688 137.009765625 431.041015625 c 4
 138.05078125 424.78125 143.508789062 420 150.020507812 420 c 4
 156.532226562 420 161.989257812 424.778320312 163.032226562 431.041992188 c 4
 170.283203125 474.6171875 174.041015625 517.674804688 174.041015625 563.22265625 c 4
 174.041015625 608.772460938 170.272460938 653.452148438 163.03125 696.9609375 c 4
 161.98828125 703.225585938 156.534179688 708 150.021484375 708 c 4
EndSplineSet
EndChar

StartChar: slash
Encoding: 47 47 71
Width: 632
Flags: HW
LayerCount: 2
Fore
SplineSet
499 768 m 17
 499 768 280.176757812 390.27734375 54 0 c 1
 135 0 l 1
 360 390 578 768 578 768 c 1
 499 768 l 17
EndSplineSet
EndChar

StartChar: hyphen
Encoding: 45 45 72
Width: 348
Flags: HW
LayerCount: 2
Fore
SplineSet
54 420 m 1
 294 420 l 5
 294 348 l 5
 54 348 l 1
 54 420 l 1
EndSplineSet
EndChar
